<svg width="17" height="17" viewBox="0 0 17 17" fill="none" xmlns="http://www.w3.org/2000/svg">
<path d="M2.0625 16.5C1.4953 16.5 1.0099 16.3 0.6064 15.89C0.2021 15.49 0 14.9999 0 14.4399V7.21997C0 6.64997 0.2021 6.17001 0.6064 5.76001C1.0099 5.36001 1.4953 5.16003 2.0625 5.16003C2.6297 5.16003 3.1151 5.36001 3.5186 5.76001C3.9229 6.17001 4.125 6.64997 4.125 7.21997V14.4399C4.125 14.9999 3.9229 15.49 3.5186 15.89C3.1151 16.3 2.6297 16.5 2.0625 16.5ZM8.25 16.5C7.6828 16.5 7.1974 16.3 6.7939 15.89C6.3896 15.49 6.1875 14.9999 6.1875 14.4399V2.06006C6.1875 1.50006 6.3896 1.00999 6.7939 0.609985C7.1974 0.199985 7.6828 0 8.25 0C8.8172 0 9.3029 0.199985 9.7072 0.609985C10.1107 1.00999 10.3125 1.50006 10.3125 2.06006V14.4399C10.3125 14.9999 10.1107 15.49 9.7072 15.89C9.3029 16.3 8.8172 16.5 8.25 16.5ZM14.4375 16.5C13.8703 16.5 13.3846 16.3 12.9803 15.89C12.5768 15.49 12.375 14.9999 12.375 14.4399V11.34C12.375 10.78 12.5768 10.29 12.9803 9.89001C13.3846 9.48001 13.8703 9.28003 14.4375 9.28003C15.0047 9.28003 15.4904 9.48001 15.8947 9.89001C16.2982 10.29 16.5 10.78 16.5 11.34V14.4399C16.5 14.9999 16.2982 15.49 15.8947 15.89C15.4904 16.3 15.0047 16.5 14.4375 16.5Z" fill="#250D53"/>
</svg>
