<svg width="17" height="12" viewBox="0 0 17 12" fill="none" xmlns="http://www.w3.org/2000/svg">
<path d="M0 2.69995C0 1.97995 0.287901 1.30004 0.800301 0.790039C1.3128 0.280039 2.0078 0 2.7325 0H8.8048C9.5295 0 10.2246 0.280039 10.737 0.790039C11.2495 1.30004 11.5374 1.97995 11.5374 2.69995V9.30005C11.5374 10.02 11.2495 10.7 10.737 11.21C10.2246 11.72 9.5295 12 8.8048 12H2.7325C2.0078 12 1.3128 11.72 0.800301 11.21C0.287901 10.7 0 10.02 0 9.30005V2.69995ZM17 2.25C17 1.16 15.7637 0.520015 14.8571 1.14001L12.4482 2.79004V9.20996L14.8577 10.86C15.7637 11.48 17 10.84 17 9.75V2.25Z" fill="#250D53"/>
</svg>
