

<svg width="16" height="15" viewBox="0 0 16 15" fill="none" xmlns="http://www.w3.org/2000/svg">
<path d="M14.5439 0C14.8169 0 15.0844 0.0799707 15.3159 0.219971C15.5474 0.369971 15.7335 0.569946 15.8531 0.819946C15.9726 1.05995 16.0207 1.33999 15.9919 1.60999C15.9631 1.87999 15.8585 2.13998 15.6901 2.34998L10.8199 8.56006C10.6191 8.82006 10.5101 9.13996 10.5101 9.45996V13.54C10.5101 13.78 10.4545 14.01 10.348 14.21C10.2415 14.42 10.0871 14.6 9.89779 14.73C9.70849 14.87 9.48969 14.95 9.25969 14.99C9.02969 15.02 8.79529 15 8.57589 14.92L6.58149 14.23C6.29599 14.13 6.04839 13.9399 5.87319 13.6899C5.69799 13.4499 5.60389 13.15 5.60389 12.85V9.46997C5.60379 9.13997 5.49109 8.82006 5.28429 8.56006L0.319392 2.35999C0.147992 2.14999 0.040491 1.89 0.00939101 1.62C-0.021709 1.35 0.0247921 1.06995 0.143592 0.819946C0.262392 0.579946 0.448692 0.369971 0.680892 0.219971C0.913092 0.0799707 1.18179 0 1.45619 0H14.5439Z" fill="#250D53"/>
</svg>
