<svg width="17" height="14" viewBox="0 0 17 14" fill="none" xmlns="http://www.w3.org/2000/svg">
<path d="M5.316 2.63C6.1379 2.63 6.8035 3.31003 6.8035 4.16003V12.47C6.8035 12.88 6.6468 13.26 6.3678 13.55C6.0888 13.84 5.7105 14 5.316 14H1.4875C1.093 14 0.714599 13.84 0.435699 13.55C0.156699 13.26 0 12.88 0 12.47V4.16003C0 3.31003 0.666399 2.63 1.4875 2.63H5.316ZM3.6142 10.9301H3.1892C3.0202 10.9301 2.858 11 2.7385 11.13C2.6189 11.25 2.5517 11.42 2.5517 11.59C2.5517 11.76 2.6189 11.93 2.7385 12.05C2.858 12.18 3.0202 12.25 3.1892 12.25H3.6142C3.7833 12.25 3.9455 12.18 4.065 12.05C4.1846 11.93 4.2517 11.76 4.2517 11.59C4.2517 11.42 4.1846 11.25 4.065 11.13C3.9455 11 3.7833 10.9301 3.6142 10.9301ZM16.3627 10.0601C16.5242 10.0601 16.6797 10.12 16.7977 10.24C16.9157 10.35 16.9875 10.51 16.9985 10.67C17.0095 10.84 16.959 11 16.857 11.13C16.7551 11.26 16.6094 11.34 16.4494 11.37H16.3627H7.6501V10.0601H16.3627ZM13.8127 0C14.6338 0 15.3002 0.690029 15.3002 1.53003V8.08997C15.3002 8.49997 15.1435 8.89004 14.8645 9.17004C14.5855 9.46004 14.2072 9.62 13.8127 9.62H7.6501V3.5C7.6502 3.06 7.4882 2.63006 7.1966 2.31006C6.905 1.99006 6.5053 1.79 6.0776 1.75H5.9501H1.7V1.53003C1.7 0.690029 2.3664 0 3.1875 0H13.8127Z" fill="#250D53"/>
</svg>
