<svg width="14" height="14" viewBox="0 0 14 14" fill="none" xmlns="http://www.w3.org/2000/svg">
<path d="M1.3125 0C0.5862 0 0 0.590059 0 1.31006V12.67C0 13.39 0.5871 13.98 1.3125 13.98H2.1875C2.9111 13.98 3.4991 13.39 3.4991 12.67V1.31006C3.4991 0.590059 2.9111 0 2.1866 0H1.3125ZM5.6857 0C4.9612 0 4.3732 0.590059 4.3732 1.31006V12.67C4.3732 13.39 4.9612 13.98 5.6857 13.98H6.5606C7.2851 13.98 7.8722 13.39 7.8722 12.67V1.31006C7.8722 0.590059 7.2851 0 6.5598 0H5.6857ZM12.003 3.64001C11.9631 3.46001 11.8883 3.30003 11.7833 3.16003C11.6784 3.01003 11.5453 2.89005 11.3923 2.80005C11.2393 2.71005 11.0695 2.65 10.8932 2.63C10.717 2.61 10.5379 2.62004 10.3668 2.67004L9.715 2.84998C9.3967 2.93998 9.1244 3.15005 8.9524 3.43005C8.7804 3.72005 8.7215 4.05 8.7875 4.38L10.5401 12.95C10.5759 13.13 10.6465 13.2899 10.7478 13.4399C10.8491 13.5799 10.9788 13.71 11.1292 13.8C11.2796 13.89 11.4476 13.96 11.6229 13.98C11.7982 14.01 11.9772 14 12.1492 13.96L13.011 13.74C13.7023 13.57 14.1258 12.8701 13.9665 12.1801L12.003 3.64001Z" fill="#250D53"/>
</svg>
