<svg width="12" height="17" viewBox="0 0 12 17" fill="none" xmlns="http://www.w3.org/2000/svg">
<path fill-rule="evenodd" clip-rule="evenodd" d="M7.7142 0.771229C7.7143 0.601229 7.6523 0.441258 7.5378 0.301259C7.4233 0.171259 7.2627 0.071239 7.0808 0.031239C6.8989 -0.018761 6.70591 -0.00873172 6.53161 0.0612683C6.35731 0.121268 6.2114 0.241215 6.1166 0.381215L0.116805 9.66124C0.040805 9.77124 0.000504712 9.91125 4.71214e-06 10.0412C-0.000495288 10.1812 0.0388039 10.3113 0.113904 10.4313C0.189004 10.5513 0.297305 10.6512 0.427905 10.7112C0.558405 10.7812 0.706506 10.8212 0.857406 10.8212H4.28581V16.2312C4.28571 16.4012 4.3477 16.5612 4.4622 16.7012C4.5767 16.8312 4.73731 16.9312 4.91921 16.9712C5.10111 17.0212 5.2941 17.0112 5.4684 16.9412C5.6427 16.8812 5.7886 16.7612 5.8834 16.6212L11.8832 7.34118C11.9592 7.23118 11.9995 7.09117 12 6.96117C12.0005 6.82117 11.9612 6.69116 11.8861 6.57116C11.811 6.45116 11.7027 6.35125 11.5721 6.29125C11.4416 6.22125 11.2935 6.18126 11.1426 6.18126H7.7142V0.771229Z" fill="#250D53"/>
</svg>
