<svg width="18" height="18" viewBox="0 0 18 18" fill="none" xmlns="http://www.w3.org/2000/svg">
<path d="M15.8816 9.88C15.9201 9.60001 15.9394 9.31 15.9394 9C15.9394 8.7 15.9201 8.39999 15.8719 8.12L17.8284 6.64001C18.0019 6.51001 18.0501 6.24995 17.9441 6.06995L16.0936 2.94995C15.9779 2.74995 15.737 2.68 15.525 2.75L13.2215 3.65002C12.7396 3.29002 12.2287 2.99002 11.6601 2.77002L11.3131 0.380005C11.2746 0.160005 11.0818 0 10.8505 0H7.14948C6.91818 0 6.73508 0.160005 6.69648 0.380005L6.34948 2.77002C5.78088 2.99002 5.26038 3.30002 4.78818 3.65002L2.48468 2.75C2.27258 2.67 2.03168 2.74995 1.91598 2.94995L0.0751825 6.06995C-0.0405175 6.25995 -0.00191687 6.51001 0.190783 6.64001L2.14738 8.12C2.09918 8.39999 2.06058 8.71 2.06058 9C2.06058 9.29 2.07988 9.60001 2.12808 9.88L0.171584 11.36C-0.00191624 11.49 -0.050116 11.7501 0.055884 11.9301L1.90638 15.05C2.02208 15.25 2.26298 15.32 2.47498 15.25L4.77848 14.35C5.26038 14.71 5.77128 15.01 6.33988 15.23L6.68688 17.62C6.73508 17.84 6.91818 18 7.14948 18H10.8505C11.0818 18 11.2746 17.84 11.3035 17.62L11.6505 15.23C12.2191 15.01 12.7396 14.71 13.2118 14.35L15.5153 15.25C15.7274 15.33 15.9683 15.25 16.084 15.05L17.9345 11.9301C18.0501 11.7301 18.0019 11.49 17.8188 11.36L15.8816 9.88ZM8.99998 12.37C7.09168 12.37 5.53028 10.86 5.53028 9C5.53028 7.14 7.09168 5.62 8.99998 5.62C10.9083 5.62 12.4697 7.14 12.4697 9C12.4697 10.86 10.9083 12.37 8.99998 12.37Z" fill="#250D53"/>
</svg>
